<svg xmlns="http://www.w3.org/2000/svg" xmlns:xlink="http://www.w3.org/1999/xlink" viewBox="0 0 395.23 690.98"><defs><style>.cls-1,.cls-17,.cls-18,.cls-32,.cls-6{fill:none;}.cls-2{isolation:isolate;}.cls-3{fill:url(#linear-gradient);}.cls-4{fill:#ececec;}.cls-13,.cls-22,.cls-5{fill:#fff;}.cls-13,.cls-6{stroke:#ececec;}.cls-13,.cls-17,.cls-18,.cls-32,.cls-6{stroke-miterlimit:10;}.cls-7{fill:#a8a8a8;}.cls-8{fill:#ffc800;}.cls-9{fill:#1a2e35;}.cls-10{fill:#dcdcdc;}.cls-11{fill:#c8c8c8;}.cls-12{fill:#375a64;}.cls-13{stroke-width:0.5px;}.cls-14{fill:#7500a6;}.cls-15{opacity:0.1;}.cls-16{fill:#ffffa8;}.cls-17,.cls-18{stroke:#1a2e35;stroke-width:0.75px;}.cls-18{stroke-dasharray:4.06 5.08;}.cls-19{fill:#9518ad;}.cls-20{fill:#c52abf;}.cls-21{fill:#ab00d4;}.cls-22{font-size:36px;font-family:CenturyGothic-Bold, Century Gothic;font-weight:700;}.cls-23{opacity:0.11;}.cls-24{clip-path:url(#clip-path);}.cls-25{opacity:0.16;fill:url(#Degradado_sin_nombre_22);}.cls-26,.cls-27,.cls-28,.cls-29{opacity:0.2;mix-blend-mode:multiply;}.cls-26{fill:url(#linear-gradient-2);}.cls-27{fill:url(#linear-gradient-3);}.cls-28{fill:url(#linear-gradient-4);}.cls-29{fill:url(#linear-gradient-5);}.cls-30{fill:#f8e6cb;mix-blend-mode:overlay;}.cls-31{mix-blend-mode:soft-light;fill:url(#linear-gradient-6);}.cls-32{stroke:#d8d8d8;}</style><linearGradient id="linear-gradient" x1="197.62" y1="690.98" x2="197.62" gradientUnits="userSpaceOnUse"><stop offset="0" stop-color="#8390f4"/><stop offset="0.14" stop-color="#807bde"/><stop offset="0.34" stop-color="#7c61c3"/><stop offset="0.56" stop-color="#794fb0"/><stop offset="0.77" stop-color="#7844a5"/><stop offset="1" stop-color="#7740a1"/></linearGradient><clipPath id="clip-path"><rect class="cls-1" x="-147.13" y="148.11" width="690" height="395.74" transform="translate(543.85 148.11) rotate(90)"/></clipPath><linearGradient id="Degradado_sin_nombre_22" x1="238.76" y1="95.85" x2="238.76" y2="491.59" gradientTransform="translate(-40.89 52.26)" gradientUnits="userSpaceOnUse"><stop offset="0" stop-color="#f7ffff"/><stop offset="1" stop-color="#e3dbdb"/></linearGradient><linearGradient id="linear-gradient-2" x1="97.69" y1="465.41" x2="567.42" y2="465.41" gradientTransform="translate(491.59 107.22) rotate(90)" gradientUnits="userSpaceOnUse"><stop offset="0" stop-color="#d1d5de"/><stop offset="1" stop-color="#dbdbdb"/></linearGradient><linearGradient id="linear-gradient-3" x1="-315.98" y1="567.11" x2="153.75" y2="567.11" xlink:href="#linear-gradient-2"/><linearGradient id="linear-gradient-4" x1="254.38" y1="27.17" x2="724.11" y2="27.17" xlink:href="#linear-gradient-2"/><linearGradient id="linear-gradient-5" x1="-106.24" y1="171.24" x2="349.92" y2="171.24" xlink:href="#linear-gradient-2"/><linearGradient id="linear-gradient-6" x1="42.18" y1="435.43" x2="489.24" y2="435.43" xlink:href="#linear-gradient-2"/></defs><g class="cls-2"><g id="Layer_6" data-name="Layer 6"><rect class="cls-3" width="395.23" height="690.98"/><path class="cls-4" d="M351.86,552.17a15.71,15.71,0,0,1-4.64,1.88,16,16,0,1,1,4.64-1.88Z"/><path class="cls-5" d="M348.5,536.68a4.88,4.88,0,1,1-4.82-4.94A4.88,4.88,0,0,1,348.5,536.68Z"/><path class="cls-5" d="M351.89,550.16l0,2a15.71,15.71,0,0,1-4.64,1.88A16,16,0,0,1,335,552l0-2a8.43,8.43,0,0,1,16.85.2Z"/><path class="cls-4" d="M56.1,506.92a10,10,0,0,1-3,1.23,10.5,10.5,0,1,1,3-1.23Z"/><path class="cls-5" d="M53.9,496.77a3.19,3.19,0,1,1-3.15-3.23A3.2,3.2,0,0,1,53.9,496.77Z"/><path class="cls-5" d="M56.12,505.6l0,1.32a10,10,0,0,1-3,1.23,10.43,10.43,0,0,1-8-1.36l0-1.32a5.52,5.52,0,0,1,11,.13Z"/><rect class="cls-6" x="67.54" y="460.15" width="69.42" height="47.32"/><path class="cls-7" d="M72.74,463a1.4,1.4,0,1,1-1.4-1.4A1.4,1.4,0,0,1,72.74,463Z"/><path class="cls-4" d="M78.42,463a1.39,1.39,0,1,1-1.39-1.4A1.39,1.39,0,0,1,78.42,463Z"/><path class="cls-8" d="M84.11,463a1.39,1.39,0,1,1-1.39-1.4A1.39,1.39,0,0,1,84.11,463Z"/><line class="cls-6" x1="67.54" y1="465.68" x2="136.96" y2="465.68"/><rect class="cls-4" x="40" y="532.45" width="36.79" height="23.33" transform="translate(-72.98 12.88) rotate(-7.77)"/><path class="cls-5" d="M75.05,530.07c-1.28,1.61-2.6,3.16-3.89,4.75s-2.63,3.12-4,4.67-2.77,3.21-4.16,4.81l-.12.15-3.7,4.22-.19.2-.23-.15-4.69-3.08-.16-.1c-1.77-1.17-3.54-2.34-5.3-3.53s-3.37-2.28-5-3.43-3.35-2.33-5-3.54c1.73,1,3.44,2.05,5.16,3.08s3.43,2.09,5.14,3.17c1.9,1.18,3.81,2.39,5.71,3.61h0l4.27,2.74q1.68-1.9,3.38-3.78v0q2.27-2.52,4.54-5,2-2.24,4.09-4.42C72.28,533,73.65,531.49,75.05,530.07Z"/><path class="cls-5" d="M54.72,545.42s0,0,0,0c-.17.19-.33.38-.5.56-.81.9-1.65,1.77-2.5,2.62-1,1-2.12,2.05-3.19,3.06s-2.18,2-3.31,2.93-2.26,1.9-3.45,2.78c1-1.12,2-2.18,3-3.22s2.12-2.06,3.19-3.06,2.19-2,3.31-2.94c.89-.76,1.81-1.52,2.74-2.24l.66-.49Z"/><path class="cls-5" d="M78,552.46c-1.38-.53-2.74-1.13-4.07-1.75s-2.65-1.28-4-1.94-2.61-1.37-3.9-2.1c-1-.59-2.08-1.19-3.09-1.84l-.65-.41,0,0,.06,0,.77.31c1.1.44,2.17.93,3.24,1.42,1.34.62,2.66,1.28,4,2s2.61,1.37,3.89,2.09S76.77,551.64,78,552.46Z"/><rect class="cls-4" x="322.14" y="555.56" width="36.96" height="58.29" transform="translate(-306.81 781.49) rotate(-76.68)"/><path class="cls-5" d="M373.24,573.43c-2.81,1.65-5.64,3.19-8.46,4.8s-5.65,3.12-8.49,4.65-5.92,3.18-8.89,4.74l-.27.16-7.87,4.12-.39.19-.25-.34c-1.73-2.41-3.46-4.81-5.18-7.23a2.7,2.7,0,0,1-.18-.25q-2.94-4.08-5.83-8.23c-1.84-2.63-3.67-5.29-5.5-7.95s-3.63-5.35-5.41-8.09c2,2.46,3.92,5,5.88,7.49s3.87,5.06,5.79,7.61q3.19,4.24,6.37,8.59h0c1.59,2.15,3.17,4.32,4.75,6.48,2.38-1.23,4.77-2.46,7.15-3.66l0,0q4.77-2.43,9.55-4.81c2.85-1.42,5.71-2.83,8.58-4.2S370.36,574.73,373.24,573.43Z"/><path class="cls-5" d="M334.46,584.53l-.09,0-1.07.55q-2.57,1.29-5.18,2.43c-2.13,1-4.3,1.84-6.46,2.71s-4.35,1.68-6.56,2.45-4.42,1.52-6.68,2.14c2.08-1.1,4.2-2.08,6.33-3s4.3-1.84,6.46-2.71,4.35-1.69,6.56-2.46c1.76-.62,3.54-1.21,5.33-1.74l1.26-.36Z"/><path class="cls-5" d="M364.86,608.21c-1.74-1.57-3.39-3.23-5-4.91s-3.2-3.4-4.77-5.13-3.08-3.51-4.56-5.32c-1.21-1.46-2.4-3-3.53-4.48l-.72-1,0-.08a.46.46,0,0,0,.07.07c.33.3.65.59,1,.89,1.37,1.28,2.69,2.6,4,4,1.62,1.68,3.19,3.4,4.75,5.13s3.09,3.51,4.56,5.32S363.5,606.3,364.86,608.21Z"/><rect class="cls-4" x="220.24" y="451.75" width="33.49" height="21.24"/><path class="cls-5" d="M253.73,451.75c-1.35,1.29-2.73,2.53-4.09,3.8s-2.75,2.49-4.14,3.73-2.89,2.55-4.34,3.82l-.13.12-3.85,3.35-.19.16-.19-.16q-1.94-1.67-3.85-3.35l-.14-.12c-1.45-1.27-2.9-2.54-4.34-3.83s-2.76-2.47-4.13-3.72-2.74-2.51-4.1-3.8c1.44,1.11,2.86,2.27,4.28,3.41s2.84,2.31,4.24,3.49q2.36,2,4.71,4h0l3.51,3c1.17-1,2.34-2,3.51-3v0l4.7-3.95q2.11-1.75,4.24-3.48C250.88,454,252.29,452.86,253.73,451.75Z"/><path class="cls-5" d="M233.52,463.09l0,0-.53.45q-1.26,1.06-2.58,2c-1.06.82-2.15,1.6-3.25,2.37s-2.21,1.52-3.34,2.24-2.27,1.43-3.45,2.08c1-.89,2.07-1.72,3.13-2.53s2.17-1.59,3.26-2.37,2.21-1.51,3.34-2.24c.9-.58,1.82-1.14,2.75-1.68l.66-.36Z"/><path class="cls-5" d="M253.65,472.3c-1.18-.65-2.33-1.36-3.45-2.08s-2.24-1.48-3.35-2.24-2.19-1.55-3.25-2.37c-.87-.65-1.73-1.33-2.57-2l-.53-.45,0,0,0,0,.65.37c.94.54,1.85,1.1,2.76,1.68,1.13.73,2.23,1.48,3.33,2.24s2.19,1.56,3.26,2.37S252.63,471.41,253.65,472.3Z"/><polygon class="cls-9" points="20.75 627.34 65.54 627.1 110.33 627.01 199.91 626.84 289.5 627.01 334.29 627.09 379.08 627.34 334.29 627.58 289.5 627.67 199.91 627.84 110.33 627.67 65.54 627.58 20.75 627.34"/><rect class="cls-10" x="77.5" y="470.57" width="243.9" height="163.15"/><rect class="cls-9" x="79.27" y="472.56" width="240.36" height="159.17"/><rect class="cls-11" x="45.73" y="645.96" width="307.44" height="11.2"/><polygon class="cls-10" points="45.73 645.96 77.5 633.72 321.4 633.72 353.17 645.96 45.73 645.96"/><polygon class="cls-9" points="80.33 641.62 100.83 633.72 298.06 633.72 318.56 641.62 80.33 641.62"/><rect class="cls-5" x="92.85" y="484.65" width="213.19" height="134.99"/><rect class="cls-12" x="92.67" y="484.65" width="213.37" height="5.19"/><path class="cls-11" d="M96.8,487.25A1.29,1.29,0,1,1,95.51,486,1.29,1.29,0,0,1,96.8,487.25Z"/><path class="cls-5" d="M102.06,487.25a1.29,1.29,0,1,1-1.29-1.29A1.29,1.29,0,0,1,102.06,487.25Z"/><path class="cls-8" d="M107.32,487.25A1.29,1.29,0,1,1,106,486,1.29,1.29,0,0,1,107.32,487.25Z"/><rect class="cls-10" x="302.26" y="489.85" width="3.78" height="129.79"/><path class="cls-7" d="M304.15,534.85h0a1,1,0,0,1-1-1V491.59a1,1,0,0,1,1-1h0a1,1,0,0,1,1,1v42.28A1,1,0,0,1,304.15,534.85Z"/><rect class="cls-5" x="154.29" y="498.01" width="114.92" height="4.37"/><path class="cls-4" d="M269.25,502.43h-115V498h115Z"/><rect class="cls-8" x="264.79" y="497.97" width="4.46" height="4.46"/><path class="cls-5" d="M268.41,501.42l-.41.31-.74-1-.28-.36a.51.51,0,0,0,.16-.09.71.71,0,0,0,.21-.27l.29.39Z"/><path class="cls-5" d="M267.61,499.1a1.1,1.1,0,0,0-1.75,1.34,1.12,1.12,0,0,0,1.4.3l.15-.1a1.25,1.25,0,0,0,.23-.23A1.11,1.11,0,0,0,267.61,499.1Zm-.47,1.19a.51.51,0,0,1-.16.09.66.66,0,0,1-.64-1.13.65.65,0,0,1,.92.12.67.67,0,0,1,.09.65A.71.71,0,0,1,267.14,500.29Z"/><rect class="cls-11" x="155.21" y="498.87" width="0.23" height="2.65"/><path class="cls-8" d="M294.58,502.55a2.14,2.14,0,0,1-.71.3,2.48,2.48,0,0,1-3-1.82,2.48,2.48,0,1,1,3.71,1.52Z"/><path class="cls-5" d="M294,500.16a.74.74,0,0,1-.75.75.75.75,0,0,1-.76-.75.76.76,0,0,1,.76-.76A.75.75,0,0,1,294,500.16Z"/><path class="cls-5" d="M294.58,502.24v.31a2.14,2.14,0,0,1-.71.3,2.45,2.45,0,0,1-1.9-.3v-.31a1.31,1.31,0,0,1,2.61,0Z"/><path class="cls-10" d="M286,502.93h-1.72v-.62a.09.09,0,0,0-.06-.08l-.18-.11a.09.09,0,0,0-.1,0l-.53.3-.86-1.49.53-.31s0-.05,0-.08v-.22a.1.1,0,0,0,0-.09l-.53-.3.86-1.5.53.31a.09.09,0,0,0,.1,0l.18-.1a.1.1,0,0,0,.06-.09v-.61H286v.61a.1.1,0,0,0,.06.09l.18.1a.08.08,0,0,0,.1,0l.53-.31.86,1.5-.53.3a.1.1,0,0,0,0,.09v.21s0,.08,0,.09l.53.31-.86,1.49-.53-.3a.09.09,0,0,0-.1,0l-.18.11a.09.09,0,0,0-.06.08Zm-1.29-.43h.86v-.19a.52.52,0,0,1,.29-.46l.15-.09a.52.52,0,0,1,.55,0l.15.09.44-.75L287,501a.51.51,0,0,1-.26-.48v-.17a.52.52,0,0,1,.26-.48l.16-.09-.44-.75-.15.09a.52.52,0,0,1-.55,0l-.15-.08a.52.52,0,0,1-.29-.47v-.18h-.86v.18a.52.52,0,0,1-.29.47l-.15.08a.52.52,0,0,1-.55,0l-.15-.09-.44.75.16.09a.52.52,0,0,1,.26.48v.17a.54.54,0,0,1-.26.49l-.16.09.44.75.15-.09a.52.52,0,0,1,.55,0l.15.09a.52.52,0,0,1,.29.46Zm.43-.8a1.28,1.28,0,1,1,1.28-1.27A1.28,1.28,0,0,1,285.12,501.7Zm0-2.12a.85.85,0,0,0-.85.85.85.85,0,0,0,1.7,0A.85.85,0,0,0,285.12,499.58Z"/><rect class="cls-4" x="143.08" y="520.41" width="159.18" height="9.02"/><rect class="cls-5" x="150.14" y="523.56" width="2.71" height="2.71"/><polygon class="cls-5" points="164.37 526.27 161.66 526.27 162.76 524.92 161.66 523.56 164.37 523.56 165.47 524.92 164.37 526.27"/><polygon class="cls-8" points="157.4 523.56 157.84 524.45 158.83 524.6 158.12 525.29 158.28 526.27 157.4 525.81 156.52 526.27 156.69 525.29 155.98 524.6 156.96 524.45 157.4 523.56"/><rect class="cls-9" x="167.42" y="524.37" width="21.59" height="1.1"/><rect class="cls-9" x="270.83" y="524.37" width="19.6" height="1.1"/><rect class="cls-12" x="195.59" y="524.37" width="67" height="1.1"/><rect class="cls-13" x="150.14" y="532.58" width="2.71" height="2.71"/><polygon class="cls-13" points="164.37 535.29 161.66 535.29 162.76 533.94 161.66 532.58 164.37 532.58 165.47 533.94 164.37 535.29"/><polygon class="cls-8" points="157.4 532.58 157.84 533.48 158.83 533.62 158.12 534.31 158.28 535.29 157.4 534.83 156.52 535.29 156.69 534.31 155.98 533.62 156.96 533.48 157.4 532.58"/><rect class="cls-9" x="167.42" y="533.39" width="21.59" height="1.1"/><rect class="cls-9" x="270.83" y="533.39" width="19.6" height="1.1"/><rect class="cls-12" x="195.59" y="533.39" width="67" height="1.1"/><rect class="cls-4" x="143.08" y="538.45" width="159.18" height="9.02"/><rect class="cls-5" x="150.14" y="541.61" width="2.71" height="2.71"/><polygon class="cls-5" points="164.37 544.32 161.66 544.32 162.76 542.96 161.66 541.61 164.37 541.61 165.47 542.96 164.37 544.32"/><polygon class="cls-5" points="157.4 541.61 157.84 542.5 158.83 542.64 158.12 543.34 158.28 544.32 157.4 543.85 156.52 544.32 156.69 543.34 155.98 542.64 156.96 542.5 157.4 541.61"/><rect class="cls-10" x="167.42" y="542.41" width="21.59" height="1.1"/><rect class="cls-10" x="270.83" y="542.41" width="19.6" height="1.1"/><rect class="cls-11" x="195.59" y="542.41" width="67" height="1.1"/><rect class="cls-13" x="150.14" y="550.63" width="2.71" height="2.71"/><polygon class="cls-13" points="164.37 553.34 161.66 553.34 162.76 551.98 161.66 550.63 164.37 550.63 165.47 551.98 164.37 553.34"/><polygon class="cls-8" points="157.4 550.63 157.84 551.52 158.83 551.66 158.12 552.36 158.28 553.34 157.4 552.87 156.52 553.34 156.69 552.36 155.98 551.66 156.96 551.52 157.4 550.63"/><rect class="cls-10" x="167.42" y="551.43" width="21.59" height="1.1"/><rect class="cls-10" x="270.83" y="551.43" width="19.6" height="1.1"/><rect class="cls-11" x="195.59" y="551.43" width="67" height="1.1"/><rect class="cls-4" x="143.08" y="556.49" width="159.18" height="9.02"/><rect class="cls-5" x="150.14" y="559.65" width="2.71" height="2.71"/><polygon class="cls-5" points="164.37 562.36 161.66 562.36 162.76 561 161.66 559.65 164.37 559.65 165.47 561 164.37 562.36"/><polygon class="cls-8" points="157.4 559.65 157.84 560.54 158.83 560.68 158.12 561.38 158.28 562.36 157.4 561.9 156.52 562.36 156.69 561.38 155.98 560.68 156.96 560.54 157.4 559.65"/><rect class="cls-10" x="167.42" y="560.45" width="21.59" height="1.1"/><rect class="cls-10" x="270.83" y="560.45" width="19.6" height="1.1"/><rect class="cls-11" x="195.59" y="560.45" width="67" height="1.1"/><rect class="cls-13" x="150.14" y="568.67" width="2.71" height="2.71"/><polygon class="cls-13" points="164.37 571.38 161.66 571.38 162.76 570.02 161.66 568.67 164.37 568.67 165.47 570.02 164.37 571.38"/><polygon class="cls-13" points="157.4 568.67 157.84 569.56 158.83 569.71 158.12 570.4 158.28 571.38 157.4 570.92 156.52 571.38 156.69 570.4 155.98 569.71 156.96 569.56 157.4 568.67"/><rect class="cls-10" x="167.42" y="569.47" width="21.59" height="1.1"/><rect class="cls-10" x="270.83" y="569.47" width="19.6" height="1.1"/><rect class="cls-11" x="195.59" y="569.47" width="67" height="1.1"/><rect class="cls-4" x="143.08" y="574.54" width="159.18" height="9.02"/><rect class="cls-5" x="150.14" y="577.69" width="2.71" height="2.71"/><polygon class="cls-5" points="164.37 580.4 161.66 580.4 162.76 579.05 161.66 577.69 164.37 577.69 165.47 579.05 164.37 580.4"/><polygon class="cls-8" points="157.4 577.69 157.84 578.58 158.83 578.73 158.12 579.42 158.28 580.4 157.4 579.94 156.52 580.4 156.69 579.42 155.98 578.73 156.96 578.58 157.4 577.69"/><rect class="cls-10" x="167.42" y="578.5" width="21.59" height="1.1"/><rect class="cls-10" x="270.83" y="578.5" width="19.6" height="1.1"/><rect class="cls-11" x="195.59" y="578.5" width="67" height="1.1"/><rect class="cls-13" x="150.14" y="586.71" width="2.71" height="2.71"/><polygon class="cls-13" points="164.37 589.42 161.66 589.42 162.76 588.07 161.66 586.71 164.37 586.71 165.47 588.07 164.37 589.42"/><polygon class="cls-13" points="157.4 586.71 157.84 587.61 158.83 587.75 158.12 588.44 158.28 589.42 157.4 588.96 156.52 589.42 156.69 588.44 155.98 587.75 156.96 587.61 157.4 586.71"/><rect class="cls-10" x="167.42" y="587.52" width="21.59" height="1.1"/><rect class="cls-10" x="270.83" y="587.52" width="19.6" height="1.1"/><rect class="cls-11" x="195.59" y="587.52" width="67" height="1.1"/><rect class="cls-4" x="143.08" y="592.58" width="159.18" height="9.02"/><rect class="cls-5" x="150.14" y="595.74" width="2.71" height="2.71"/><polygon class="cls-5" points="164.37 598.45 161.66 598.45 162.76 597.09 161.66 595.74 164.37 595.74 165.47 597.09 164.37 598.45"/><polygon class="cls-5" points="157.4 595.74 157.84 596.63 158.83 596.77 158.12 597.47 158.28 598.45 157.4 597.98 156.52 598.45 156.69 597.47 155.98 596.77 156.96 596.63 157.4 595.74"/><rect class="cls-10" x="167.42" y="596.54" width="21.59" height="1.1"/><rect class="cls-10" x="270.83" y="596.54" width="19.6" height="1.1"/><rect class="cls-11" x="195.59" y="596.54" width="67" height="1.1"/><rect class="cls-13" x="150.14" y="604.76" width="2.71" height="2.71"/><polygon class="cls-13" points="164.37 607.47 161.66 607.47 162.76 606.11 161.66 604.76 164.37 604.76 165.47 606.11 164.37 607.47"/><polygon class="cls-13" points="157.4 604.76 157.84 605.65 158.83 605.79 158.12 606.49 158.28 607.47 157.4 607 156.52 607.47 156.69 606.49 155.98 605.79 156.96 605.65 157.4 604.76"/><rect class="cls-10" x="167.42" y="605.56" width="21.59" height="1.1"/><rect class="cls-10" x="270.83" y="605.56" width="19.6" height="1.1"/><rect class="cls-11" x="195.59" y="605.56" width="67" height="1.1"/><rect class="cls-4" x="143.08" y="610.62" width="159.18" height="9.02"/><rect class="cls-5" x="150.14" y="613.78" width="2.71" height="2.71"/><polygon class="cls-5" points="164.37 616.49 161.66 616.49 162.76 615.13 161.66 613.78 164.37 613.78 165.47 615.13 164.37 616.49"/><polygon class="cls-8" points="157.4 613.78 157.84 614.67 158.83 614.81 158.12 615.51 158.28 616.49 157.4 616.03 156.52 616.49 156.69 615.51 155.98 614.81 156.96 614.67 157.4 613.78"/><rect class="cls-10" x="167.42" y="614.58" width="21.59" height="1.1"/><rect class="cls-10" x="270.83" y="614.58" width="19.6" height="1.1"/><rect class="cls-11" x="195.59" y="614.58" width="67" height="1.1"/><rect class="cls-10" x="158.87" y="512.27" width="30.13" height="3.23"/><rect class="cls-10" x="150.14" y="512.27" width="4.1" height="3.23"/><path class="cls-5" d="M154.25,512.27c-.16.18-.33.35-.5.52l-.51.52-.53.53h0l-.48.47,0,0,0,0-.48-.47h0l-.54-.53-.5-.52-.51-.52.53.47.52.48.58.55h0l.43.41.43-.41h0l.58-.55.52-.48Z"/><path class="cls-5" d="M151.77,513.76h0l-.07.08c-.1.14-.21.26-.31.39l-.4.44c-.14.15-.27.29-.41.42l-.43.4.39-.48.4-.45.41-.42.34-.31a.27.27,0,0,1,.08-.07Z"/><path class="cls-5" d="M154.24,515.5l-.42-.4c-.14-.13-.27-.27-.41-.42s-.27-.29-.4-.44-.21-.25-.31-.39a.27.27,0,0,1-.07-.08h0l.08.07.34.31.41.42.4.45C154,515.17,154.12,515.33,154.24,515.5Z"/><rect class="cls-10" x="209.58" y="512.27" width="30.13" height="3.23"/><path class="cls-10" d="M202.71,513.36a.69.69,0,1,1-.68-.68A.68.68,0,0,1,202.71,513.36Z"/><path class="cls-10" d="M203.21,515.25v.25h-2.37v-.25a1.19,1.19,0,0,1,2.37,0Z"/><path class="cls-10" d="M204.46,513a.67.67,0,0,1-.68.68.68.68,0,1,1,0-1.36A.67.67,0,0,1,204.46,513Z"/><path class="cls-10" d="M205,514.83v.25H202.6v-.25a1.18,1.18,0,1,1,2.36,0Z"/><rect class="cls-10" x="260.29" y="512.27" width="30.13" height="3.23"/><path class="cls-10" d="M255.67,512.27h-4.11v3.23h4.11l1.22-1.62Zm0,1.86a.25.25,0,0,1-.24-.25.24.24,0,0,1,.24-.24.23.23,0,0,1,.24.24A.24.24,0,0,1,255.7,514.13Z"/><rect class="cls-14" x="92.67" y="489.85" width="50.41" height="129.79"/><rect class="cls-5" x="99.72" y="509.07" width="36.32" height="9.63"/><rect class="cls-5" x="99.72" y="497.97" width="5.06" height="0.81"/><rect class="cls-5" x="99.72" y="501.62" width="5.06" height="0.81"/><rect class="cls-5" x="99.72" y="499.81" width="5.06" height="0.81"/><rect class="cls-4" x="109.59" y="497.97" width="7.04" height="4.46"/><path class="cls-4" d="M116.63,498v4.46h-7V498l.9.52.89.54,1,.61h0l.74.47.74-.47h0l1-.61.89-.54Z"/><path class="cls-5" d="M116.63,498l-.86.59-.87.57-.91.59,0,0-.81.52,0,0,0,0-.81-.52,0,0-.91-.59-.87-.57-.86-.59.9.52.89.54,1,.61h0l.74.47.74-.47h0l1-.61.89-.54Z"/><path class="cls-5" d="M112.38,499.64h0l-.11.1-.54.43-.69.5-.7.47c-.23.15-.47.3-.72.43.21-.18.43-.36.66-.53s.45-.33.68-.49.47-.32.7-.48.38-.24.58-.35l.14-.08Z"/><path class="cls-5" d="M116.61,501.57c-.25-.13-.49-.28-.73-.43l-.7-.47-.68-.5c-.19-.14-.37-.28-.54-.43a.52.52,0,0,1-.11-.1h0l.14.08.57.35.71.48c.23.16.46.32.68.49S116.4,501.39,116.61,501.57Z"/><rect class="cls-15" x="92.67" y="527.09" width="50.41" height="6.85"/><rect class="cls-5" x="99.72" y="528.56" width="29.23" height="4.02"/><rect class="cls-5" x="99.72" y="536.44" width="29.23" height="4.02"/><rect class="cls-5" x="99.72" y="544.32" width="29.23" height="4.02"/><rect class="cls-5" x="99.72" y="552.19" width="29.23" height="4.02"/><rect class="cls-16" x="105.92" y="560.07" width="29.23" height="4.02"/><rect class="cls-16" x="105.92" y="567.94" width="29.23" height="4.02"/><rect class="cls-5" x="99.72" y="575.82" width="29.23" height="4.02"/><rect class="cls-5" x="99.72" y="583.7" width="29.23" height="4.02"/><path class="cls-17" d="M92.53,577.43a13.67,13.67,0,0,0,.15,2"/><path class="cls-18" d="M94.12,584.28c5.77,13.15,26.54,26.93,49.47,17,26.16-11.33,25.66-53.86,58.23-72.92"/><path class="cls-17" d="M204,527.13c.59-.31,1.18-.61,1.79-.9"/><polygon class="cls-8" points="203.68 520.22 200.21 529.74 207.49 524.06 235.31 513.97 203.68 520.22"/><polygon class="cls-19" points="203.68 520.22 200.21 529.74 207.49 524.06 235.31 513.97 203.68 520.22"/><polygon class="cls-9" points="208.42 526.28 200.21 529.74 207.49 524.06 208.42 526.28"/><polygon class="cls-20" points="207.49 524.06 235.31 513.97 212.49 536.24 207.49 524.06"/><polygon class="cls-20" points="203.68 520.22 192.12 512.76 235.31 513.97 203.68 520.22"/><circle class="cls-7" cx="303.17" cy="489.54" r="26.95" transform="translate(-244.89 666.14) rotate(-76.09)"/><rect class="cls-5" x="284.78" y="477.87" width="36.79" height="23.33"/><path class="cls-10" d="M321.57,477.87c-1.49,1.43-3,2.79-4.5,4.19l-4.54,4.09c-1.58,1.41-3.18,2.81-4.77,4.2l-.14.13q-2.12,1.84-4.24,3.68l-.21.17-.2-.17q-2.13-1.83-4.24-3.68l-.14-.13q-2.4-2.09-4.78-4.21l-4.54-4.08c-1.49-1.4-3-2.76-4.49-4.19,1.58,1.22,3.13,2.5,4.69,3.75s3.12,2.54,4.67,3.83c1.72,1.43,3.45,2.88,5.16,4.35h0l3.87,3.28c1.28-1.09,2.57-2.2,3.85-3.28v0q2.58-2.19,5.17-4.34,2.32-1.93,4.66-3.83C318.44,480.37,320,479.09,321.57,477.87Z"/><path class="cls-10" d="M299.36,490.33l-.05,0-.58.49q-1.38,1.17-2.82,2.25c-1.18.9-2.38,1.75-3.58,2.6s-2.43,1.67-3.67,2.46-2.5,1.58-3.79,2.29c1.11-1,2.27-1.89,3.44-2.78s2.38-1.75,3.58-2.6,2.43-1.67,3.67-2.47c1-.63,2-1.26,3-1.84.23-.14.47-.27.71-.4Z"/><path class="cls-10" d="M321.48,500.46c-1.3-.71-2.56-1.49-3.79-2.29s-2.46-1.62-3.68-2.46-2.4-1.7-3.57-2.6c-1-.72-1.9-1.46-2.82-2.24l-.59-.5s0,0,0,0l.05,0,.72.41c1,.58,2,1.21,3,1.84,1.24.8,2.45,1.63,3.66,2.47s2.41,1.71,3.58,2.6S320.37,499.48,321.48,500.46Z"/><circle class="cls-21" cx="317.54" cy="477.87" r="5.93" transform="translate(-137.87 128.88) rotate(-18.93)"/><path class="cls-5" d="M316.89,479.18v-4.83a.67.67,0,0,1,.66-.66.65.65,0,0,1,.64.66v4.83a.63.63,0,0,1-.64.65A.65.65,0,0,1,316.89,479.18Zm.66,2.88a.66.66,0,0,1-.66-.66v-.24a.67.67,0,0,1,.66-.66.65.65,0,0,1,.64.66v.24A.64.64,0,0,1,317.55,482.06Z"/><text class="cls-22" transform="translate(34.42 123.09)">Request Forms for <tspan x="0" y="43.2">Reassessment or </tspan><tspan x="0" y="86.4">Reinstatement </tspan></text><g class="cls-23"><g class="cls-24"><rect class="cls-25" x="-147.13" y="148.11" width="690" height="395.74" transform="translate(543.85 148.11) rotate(90)"/><path class="cls-26" d="M-35.85,628.86c17.11-6.93,35.9-5,53.74-1.36s35.62,9,53.74,8.74c29.59-.47,58.76-17,77.18-43.87s25.69-63.77,19-97.28c-4.24-21.19-13.73-41.11-14.5-62.84-.79-22.32,7.7-43.53,11.17-65.5,8.24-52.16-14.35-108.07-52.44-137.26s-89.2-32-131-10.6-73.79,65.16-88.63,115.31-13.11,106,1.32,156.29c7.08,24.67,17.09,48.16,23.19,73.18s8,52.65-1,76.43l15.69,34.54C-67.92,653.58-53,635.79-35.85,628.86Z"/><path class="cls-27" d="M-137.55,215.19c17.11-6.93,35.9-5,53.74-1.36s35.63,9,53.74,8.73c29.6-.46,58.76-16.94,77.19-43.86s25.68-63.78,19-97.28C61.86,60.23,52.38,40.31,51.61,18.58c-.8-22.32,7.69-43.53,11.16-65.5C71-99.08,48.43-155,10.33-184.18s-89.19-32-131-10.6-73.79,65.16-88.62,115.31-13.12,106,1.31,156.28c7.08,24.67,17.09,48.16,23.19,73.18s8,52.66-1,76.43L-170.1,261C-169.62,239.91-154.66,222.12-137.55,215.19Z"/><path class="cls-28" d="M402.4,785.55c17.11-6.94,35.9-5,53.74-1.37s35.62,9,53.74,8.74c29.59-.46,58.76-16.95,77.18-43.87s25.69-63.77,19-97.27c-4.24-21.19-13.72-41.11-14.49-62.85-.79-22.31,7.69-43.52,11.16-65.49,8.24-52.16-14.34-108.07-52.43-137.26s-89.2-32-131-10.6-73.79,65.16-88.63,115.31-13.11,106,1.32,156.28c7.07,24.67,17.09,48.16,23.19,73.18s8,52.65-1.05,76.43l15.69,34.54C370.33,810.27,385.29,792.48,402.4,785.55Z"/><path class="cls-29" d="M395.74,457.13a115.46,115.46,0,0,1-55.08-27.74c-31.53-28.48-49.82-75.7-47.25-122,.27-4.93.75-9.89,1.33-14.86,3-26,8.47-52.54-.88-75.88-7.94-19.81-25-32.48-35.78-50.37-14.13-23.39-16.44-54.88-8.9-82.1s24.1-50.26,44-67.1C300,11.23,307.31,6.08,314.61,1h81.13Z"/><path class="cls-30" d="M395.74,561.47a64.31,64.31,0,0,1-10.82-19.89c-4.47-13.44-5.33-28.59-11.93-40.79-8.68-16.08-25.37-23.55-41.32-27.59s-32.72-5.88-47-15c-29.69-18.93-39.9-66-29.14-103.33,7.18-24.85,21.63-45.61,39.24-62.34a192.49,192.49,0,0,1,28.34-22.14c22.36-14.39,47-24.94,66.08-44.67a83.23,83.23,0,0,0,6.58-7.68Z"/><path class="cls-30" d="M201.19,691H0V354.42a111.75,111.75,0,0,1,25,6.31C52.69,371.23,76.9,394,91.71,422.87a138.46,138.46,0,0,1,14.76,50c2.22,23.12-.46,49.18,12.4,67,7.74,10.72,19.56,15.93,30.14,22.6,30.11,19,53.16,54.86,55.58,94.6A108.82,108.82,0,0,1,201.19,691Z"/><path class="cls-31" d="M0,596.46V149.4a109.36,109.36,0,0,1,31.7,9.13C55.38,169.31,78,190.87,81.55,220.14c1.55,12.62-.55,25-4.38,37-5.49,17.2-1,36.48,11.07,48.28a79.53,79.53,0,0,1,19.45,31.1c7.6,22.3,5.74,48.67-4.87,69.23a117.79,117.79,0,0,1-11.11,17.09C80.06,438.24,66.43,452,61.37,471.39c-5.26,20.12,0,42.11-3.52,62.73-5.2,30.22-28.93,52.43-54.34,61.21C2.35,595.73,1.18,596.11,0,596.46Z"/><ellipse class="cls-30" cx="272.43" cy="180.76" rx="26.98" ry="31.36"/><ellipse class="cls-30" cx="190.74" cy="550.71" rx="9.26" ry="10.76"/><path class="cls-30" d="M81.9,96.08c-2.56,0-4.63-2.41-4.63-5.38s2.07-5.38,4.63-5.38,4.63,2.41,4.63,5.38S84.46,96.08,81.9,96.08Z"/><path class="cls-30" d="M226.69,607.22c-2.56,0-4.63-2.41-4.63-5.38s2.07-5.38,4.63-5.38,4.63,2.41,4.63,5.38S229.24,607.22,226.69,607.22Z"/><path class="cls-32" d="M405.37,82.58c0,38.24-15.11,76.14-40.28,100.77-21.83,21.35-49.7,32.35-73.48,50.67S247,283.28,252.19,315.88c3.59,22.39,18.95,40.18,36.32,50.7s36.86,15.09,55.84,20.72,38.24,12.8,53.28,27.39c19.07,18.49,29.36,48.51,26.46,77.17"/><path class="cls-32" d="M406.57,95.39c0,35.84-14.16,71.37-37.76,94.46-20.46,20-46.59,30.33-68.88,47.5S258.08,283.53,263,314.09c3.36,21,17.76,37.66,34,47.53s34.56,14.14,52.35,19.42,35.85,12,49.95,25.67c17.87,17.33,27.52,45.48,24.8,72.35"/><path class="cls-32" d="M407.77,108.19c0,33.46-13.22,66.62-35.23,88.16-19.1,18.68-43.49,28.31-64.29,44.33s-39.05,43.09-34.48,71.61c3.14,19.59,16.57,35.15,31.77,44.36s32.25,13.2,48.85,18.13,33.46,11.19,46.62,24c16.68,16.18,25.68,42.44,23.14,67.52"/><path class="cls-32" d="M409,121c0,31.06-12.28,61.85-32.72,81.85-17.73,17.35-40.37,26.28-59.69,41.16s-36.26,40-32,66.49c2.91,18.18,15.39,32.63,29.49,41.18s29.94,12.26,45.36,16.83,31.07,10.4,43.28,22.24c15.49,15,23.85,39.41,21.49,62.69"/><path class="cls-32" d="M410.18,133.81c0,28.67-11.33,57.08-30.2,75.54-16.36,16-37.26,24.26-55.09,38s-33.46,36.93-29.54,61.37c2.68,16.78,14.2,30.12,27.22,38s27.63,11.3,41.86,15.53,28.67,9.59,39.95,20.53c14.29,13.86,22,36.36,19.83,57.85"/><path class="cls-32" d="M-57.41,282.51c19.86-6.33,41.51-10.95,60.65-2.1C28.32,292,42.37,324.15,45.58,355.3s-2.1,62.5-4.14,93.78-.28,64.78,15.1,90.56c21.32,35.76,62.87,47.5,88,79.76,20.94,26.9,27.85,67.51,17.28,101.65"/><path class="cls-32" d="M-57.41,306.2c18.79-6,39.27-10.36,57.38-2,23.72,11,37,41.38,40.05,70.85s-2,59.13-3.92,88.71-.26,61.29,14.28,85.67c20.17,33.83,59.48,44.93,83.24,75.45,19.8,25.45,26.33,63.86,16.34,96.16"/><path class="cls-32" d="M-57.41,329.89c17.72-5.65,37-9.76,54.1-1.87,22.37,10.33,34.9,39,37.77,66.79s-1.88,55.76-3.7,83.66-.25,57.78,13.47,80.77c19,31.9,56.08,42.36,78.48,71.14,18.67,24,24.83,60.22,15.41,90.67"/><path class="cls-32" d="M-57.41,353.58c16.65-5.3,34.79-9.17,50.82-1.76,21,9.71,32.79,36.65,35.48,62.75S27.13,467,25.42,493.16,25.19,547.44,38.07,569c17.87,30,52.69,39.8,73.73,66.83,17.54,22.54,23.33,56.57,14.48,85.18"/><path class="cls-32" d="M-57.41,377.27c15.57-5,32.54-8.58,47.55-1.65,19.66,9.09,30.67,34.29,33.19,58.71s-1.65,49-3.25,73.52-.22,50.78,11.83,71c16.72,28,49.29,37.23,69,62.52,16.41,21.09,21.82,52.93,13.55,79.69"/><path class="cls-32" d="M237.74-5.86c-13.84-4.62-28.8,3.61-38.9,15.53S182.2,36.86,174.35,50.89s-17.86,27.59-31.52,32.9c-24.29,9.44-49-9.84-73.38-19C32.59,50.85-10.38,61.69-39,92.1"/><path class="cls-32" d="M234.88-16.77C221-21.39,206.08-13.17,196-1.24S179.35,26,171.5,40,153.63,67.57,140,72.87c-24.3,9.45-49-9.83-73.38-19C29.73,39.94-13.24,50.78-41.83,81.19"/><path class="cls-32" d="M232-27.69c-13.83-4.62-28.79,3.61-38.89,15.53S176.49,15,168.64,29.06,150.77,56.65,137.12,62c-24.29,9.44-49-9.84-73.38-19C26.88,29-16.1,39.86-44.69,70.28"/><path class="cls-32" d="M229.17-38.6c-13.84-4.62-28.8,3.6-38.9,15.53S173.63,4.12,165.78,18.15,147.92,45.74,134.26,51c-24.29,9.45-49-9.83-73.38-19C24,18.11-18.95,29-47.54,59.36"/><path class="cls-32" d="M543.64,530.75c-14.26,2.33-25,16.92-30.08,32.6s-5.66,32.71-7.92,49.24-6.64,33.65-17.25,45c-18.88,20.13-48.21,14.23-73.69,17.38-38.53,4.75-74,35-89.43,76.31"/><path class="cls-32" d="M537.21,522.13c-14.26,2.33-25,16.93-30.08,32.6s-5.67,32.71-7.92,49.24-6.65,33.66-17.26,45c-18.87,20.13-48.21,14.23-73.68,17.37-38.54,4.76-74,35-89.44,76.32"/><path class="cls-32" d="M530.77,513.52c-14.25,2.33-25,16.92-30.08,32.6s-5.66,32.71-7.91,49.24-6.65,33.65-17.26,45c-18.88,20.13-48.21,14.23-73.68,17.38-38.54,4.75-74,35-89.44,76.31"/><path class="cls-32" d="M524.34,504.9c-14.26,2.33-25,16.93-30.08,32.6s-5.67,32.71-7.92,49.24-6.65,33.66-17.25,45c-18.88,20.13-48.22,14.23-73.69,17.37-38.54,4.76-74,35-89.43,76.32"/></g></g></g></g></svg>